<svg width="128" height="134" viewBox="0 0 128 134" fill="none" xmlns="http://www.w3.org/2000/svg">
<circle cx="64" cy="69.9896" r="64" fill="url(#paint0_linear)"/>
<path d="M105.418 41.8091L104.913 36.7814L105.418 35.9979L104.576 26.9773L103.113 26.0691H93.2288L92.0291 26.9773L91.1875 35.9979L91.7148 36.5815L91.1875 42.0662L90.575 42.5618L88.3728 66.1613L89.458 66.9681H107.284L108.232 66.1613L106.03 42.5618L105.418 41.8091Z" fill="#DBEDFF"/>
<path d="M97.5072 42.5618L98.1197 42.0662L98.647 36.5815L98.1197 35.9979L98.9613 26.9773L100.161 26.0691H93.2288L92.0291 26.9773L91.1875 35.9979L91.7148 36.5815L91.1875 42.0662L90.575 42.5618L88.3728 66.1613L89.458 66.9681H96.3902L95.305 66.1613L97.5072 42.5618Z" fill="#B5DCFF"/>
<path d="M114.798 66.1613H80.5324L78.7551 67.8903V107.35H115.549L116.073 106.881V67.4357C116.073 66.7318 115.502 66.1613 114.798 66.1613V66.1613Z" fill="#8479C2"/>
<path d="M88.3728 67.4357C88.3728 66.7318 88.9434 66.1613 89.6473 66.1613H80.5324L78.7551 67.8903V107.35H88.8966L88.3728 106.881V67.4357Z" fill="#6E60B8"/>
<path d="M105.261 20.4134H91.3436C90.6852 20.4134 90.1515 20.9469 90.1515 21.6053V25.7852C90.1515 26.4436 90.6852 26.9771 91.3436 26.9771H105.261C105.92 26.9771 106.454 26.4436 106.454 25.7852V21.6053C106.453 20.9471 105.92 20.4134 105.261 20.4134Z" fill="#B5DCFF"/>
<path d="M96.8552 25.7854V21.6053C96.8552 20.9469 97.3889 20.4134 98.0473 20.4134H91.3436C90.6852 20.4134 90.1515 20.9469 90.1515 21.6053V25.7852C90.1515 26.4436 90.6852 26.9771 91.3436 26.9771H98.0471C97.3889 26.9773 96.8552 26.4438 96.8552 25.7854V25.7854Z" fill="#8BCAFF"/>
<path d="M96.2571 4.22547C95.7997 4.32862 95.3391 4.08505 95.1295 3.66555C93.1565 -0.277379 87.8652 -1.23017 84.639 1.75864C84.2539 2.11558 83.6521 2.11402 83.2659 1.75798C80.7223 -0.584846 76.7747 -0.58662 74.2293 1.75642C73.8429 2.11225 73.2395 2.11491 72.8553 1.75664C68.7542 -2.07004 61.6456 0.718891 61.6456 6.68675C61.6456 12.6557 68.7548 15.4422 72.8553 11.6169C73.2395 11.2584 73.8427 11.261 74.2293 11.6171C76.7743 13.9592 80.7232 13.9597 83.2677 11.614C83.6532 11.2584 84.2537 11.2573 84.6395 11.6126C86.9331 13.7241 90.4048 13.9621 92.9624 12.1892C93.3508 11.9199 93.8737 11.9308 94.228 12.2435C97.0779 14.7607 101.89 12.8323 101.89 8.74584C101.889 5.71244 99.0593 3.59346 96.2571 4.22547V4.22547Z" fill="#DBEDFF"/>
<path d="M94.2277 7.04391C93.8735 6.73112 93.3506 6.72025 92.9622 6.98956C90.4046 8.76248 86.9326 8.52445 84.6393 6.41301C84.2535 6.05762 83.653 6.05873 83.2674 6.41434C80.723 8.76004 76.774 8.7596 74.2291 6.41744C73.8427 6.06162 73.2393 6.05895 72.8551 6.41722C69.409 9.63208 63.8396 8.17617 62.1492 4.08682C61.8282 4.86325 61.6456 5.73374 61.6456 6.68631C61.6456 12.6553 68.7548 15.4418 72.8553 11.6164C73.2395 11.2579 73.8427 11.2606 74.2293 11.6166C76.7743 13.9588 80.7232 13.9592 83.2677 11.6135C83.6532 11.2579 84.2537 11.2568 84.6395 11.6122C86.9331 13.7236 90.4048 13.9617 92.9624 12.1888C93.3508 11.9194 93.8737 11.9303 94.228 12.2431C97.0779 14.7603 101.89 12.8319 101.89 8.7454C101.89 7.7671 101.594 6.88508 101.101 6.15856C99.6177 8.31659 96.3691 8.93529 94.2277 7.04391V7.04391Z" fill="#B5DCFF"/>
<path d="M90.575 42.5618H106.03L105.418 35.9979H91.1874L90.575 42.5618Z" fill="#F27182"/>
<path d="M91.1874 35.9979L90.575 42.5618H97.5069L98.1196 35.9979H91.1874Z" fill="#ED5469"/>
<path d="M88.0662 100.309H108.539V107.18H88.0662V100.309Z" fill="#00D2FC"/>
<path d="M88.0662 100.309H97.6964V107.18H88.0662V100.309Z" fill="#00C2FB"/>
<path d="M88.0662 87.7593H108.539V94.6301H88.0662V87.7593Z" fill="#00D2FC"/>
<path d="M88.0662 87.7593H97.6964V94.6301H88.0662V87.7593Z" fill="#00C2FB"/>
<path d="M78.5134 54.7699L58.3569 64.9172C57.887 65.1539 57.5904 65.6351 57.5904 66.1613L56.8162 66.9681V107.35H79.5931L80.5326 106.881V56.014C80.5324 54.9769 79.4398 54.3036 78.5134 54.7699V54.7699Z" fill="#FFC365"/>
<path d="M88.0662 94.3321H108.539V100.607H88.0662V94.3321Z" fill="#62DDFC"/>
<path d="M88.0662 94.3321H97.6964V100.607H88.0662V94.3321Z" fill="#00D2FC"/>
<path d="M108.232 81.1377H88.3728C88.2663 81.1377 88.1647 81.1171 88.0664 81.088V88.0573H108.539V81.088C108.44 81.1171 108.339 81.1377 108.232 81.1377V81.1377Z" fill="#62DDFC"/>
<path d="M97.5522 81.1377H88.2104C88.1603 81.1377 88.1126 81.1171 88.0662 81.088V88.0573H97.6964V81.088C97.65 81.1171 97.6023 81.1377 97.5522 81.1377V81.1377Z" fill="#00D2FC"/>
<path d="M108.232 75.2635H88.3728C87.7144 75.2635 87.1807 75.797 87.1807 76.4554V80.6353C87.1807 81.2937 87.7144 81.8272 88.3728 81.8272H108.232C108.891 81.8272 109.424 81.2937 109.424 80.6353V76.4554C109.424 75.797 108.891 75.2635 108.232 75.2635V75.2635Z" fill="#DBEDFF"/>
<path d="M96.5043 80.6355V76.4556C96.5043 75.7972 97.038 75.2637 97.6964 75.2637H88.3728C87.7144 75.2637 87.1807 75.7972 87.1807 76.4556V80.6355C87.1807 81.2939 87.7144 81.8274 88.3728 81.8274H97.6964C97.038 81.8274 96.5043 81.2937 96.5043 80.6355Z" fill="#B5DCFF"/>
<path d="M64.0113 68.3808C64.0113 67.8546 64.3079 67.3734 64.7778 67.1367L80.5324 59.2056V56.014C80.5324 54.9769 79.4397 54.3036 78.5133 54.7699L58.3567 64.9172C57.8869 65.1539 57.5903 65.6351 57.5903 66.1613V106.882H64.0113V68.3808Z" fill="#FFA90F"/>
<path d="M55.5711 54.7699L35.4145 64.9172C34.9446 65.1539 34.648 65.6351 34.648 66.1613L33.6582 66.9681V107.959H55.8257L57.5902 106.881V56.014C57.5902 54.9769 56.4974 54.3036 55.5711 54.7699V54.7699Z" fill="#FFC365"/>
<path d="M41.0691 68.3808C41.0691 67.8546 41.3657 67.3734 41.8356 67.1367L57.5902 59.2056V56.014C57.5902 54.9769 56.4975 54.3036 55.5711 54.7699L35.4145 64.9172C34.9447 65.1539 34.6481 65.6351 34.6481 66.1613V106.882H41.0691V68.3808Z" fill="#FFA90F"/>
<path d="M32.6289 54.7699L12.4723 64.9172C12.0025 65.1539 11.7059 65.6351 11.7059 66.1613V106.882H34.648V56.014C34.648 54.9769 33.5553 54.3036 32.6289 54.7699Z" fill="#FFC365"/>
<path d="M18.1268 68.3808C18.1268 67.8546 18.4234 67.3734 18.8932 67.1367L34.6479 59.2056V56.014C34.6479 54.9769 33.5551 54.3036 32.6287 54.7699L12.4721 64.9172C12.0023 65.1539 11.7057 65.6351 11.7057 66.1613V106.882H18.1268V68.3808Z" fill="#FFA90F"/>
<path d="M119.023 106.653H8.75527C7.84042 106.653 7.09882 107.395 7.09882 108.31V111.924C7.09882 112.839 7.84042 113.581 8.75527 113.581H119.023C119.938 113.581 120.679 112.839 120.679 111.924V108.31C120.679 107.395 119.938 106.653 119.023 106.653Z" fill="#DBEDFF"/>
<path d="M119.023 110.117H8.75527C7.84042 110.117 7.09882 109.375 7.09882 108.461V111.924C7.09882 112.839 7.84042 113.581 8.75527 113.581H119.023C119.938 113.581 120.679 112.839 120.679 111.924V108.46C120.679 109.375 119.938 110.117 119.023 110.117V110.117Z" fill="#B5DCFF"/>
<path d="M72.9247 71.2704H65.1982C64.4166 71.2704 63.7828 71.904 63.7828 72.6857V81.3265C63.7828 82.108 64.4166 82.7418 65.1982 82.7418H72.9247C73.7063 82.7418 74.3401 82.1083 74.3401 81.3265V72.6857C74.3398 71.904 73.7063 71.2704 72.9247 71.2704Z" fill="#00D2FC"/>
<path d="M49.9824 71.2704H42.2558C41.4742 71.2704 40.8405 71.904 40.8405 72.6857V81.3265C40.8405 82.108 41.4742 82.7418 42.2558 82.7418H49.9824C50.7639 82.7418 51.3977 82.1083 51.3977 81.3265V72.6857C51.3977 71.904 50.7639 71.2704 49.9824 71.2704V71.2704Z" fill="#00D2FC"/>
<path d="M27.0402 71.2704H19.3136C18.532 71.2704 17.8983 71.904 17.8983 72.6857V81.3265C17.8983 82.108 18.532 82.7418 19.3136 82.7418H27.0402C27.8217 82.7418 28.4555 82.1083 28.4555 81.3265V72.6857C28.4555 71.904 27.8217 71.2704 27.0402 71.2704Z" fill="#00D2FC"/>
<path d="M69.0615 81.3263V72.6855C69.0615 71.904 69.6952 71.2704 70.4768 71.2704H65.1982C64.4166 71.2704 63.7828 71.904 63.7828 72.6855V81.3263C63.7828 82.1078 64.4166 82.7416 65.1982 82.7416H70.4768C69.695 82.7416 69.0615 82.108 69.0615 81.3263Z" fill="#00C2FB"/>
<path d="M46.1191 81.3263V72.6855C46.1191 71.904 46.7529 71.2704 47.5344 71.2704H42.2558C41.4742 71.2704 40.8405 71.904 40.8405 72.6855V81.3263C40.8405 82.1078 41.474 82.7416 42.2558 82.7416H47.5344C46.7529 82.7416 46.1191 82.108 46.1191 81.3263V81.3263Z" fill="#00C2FB"/>
<path d="M23.1769 81.3263V72.6855C23.1769 71.904 23.8104 71.2704 24.5922 71.2704H19.3136C18.532 71.2704 17.8983 71.904 17.8983 72.6855V81.3263C17.8983 82.1078 18.5318 82.7416 19.3136 82.7416H24.5922C23.8104 82.7416 23.1769 82.108 23.1769 81.3263Z" fill="#00C2FB"/>
<defs>
<linearGradient id="paint0_linear" x1="63.9066" y1="133.99" x2="63.9066" y2="5.9896" gradientUnits="userSpaceOnUse">
<stop stop-color="#9578BC"/>
<stop offset="1" stop-color="#644FB3"/>
<stop offset="1" stop-color="#644FB3" stop-opacity="0"/>
</linearGradient>
</defs>
</svg>
