<svg width="128" height="128" viewBox="0 0 128 128" fill="none" xmlns="http://www.w3.org/2000/svg">
<circle cx="64" cy="64" r="64" fill="url(#paint0_linear)"/>
<path d="M111.685 90.3869V111.483H45.6167C39.7915 111.483 35.0699 106.759 35.0699 100.934C35.0699 100.376 35.1133 99.8298 35.1956 99.2951C35.9841 94.249 40.349 90.3869 45.6167 90.3869H111.685Z" fill="#AA5E33"/>
<path d="M103.906 90.3869C102.464 92.4002 100.855 94.3154 99.0841 96.1116C90.3312 104.992 78.6488 109.99 66.1914 110.185C65.9376 110.189 65.6886 110.191 65.435 110.191H65.4327C54.237 110.189 43.6514 106.35 35.1956 99.2951C35.9841 94.249 40.3491 90.3869 45.6168 90.3869H103.906Z" fill="#9D552E"/>
<path d="M111.685 111.482C117.51 111.482 122.232 106.76 122.232 100.935C122.232 95.1093 117.51 90.3871 111.685 90.3871C105.86 90.3871 101.137 95.1093 101.137 100.935C101.137 106.76 105.86 111.482 111.685 111.482Z" fill="#E6AC8E"/>
<path d="M122.232 100.934C122.232 106.76 117.51 111.482 111.686 111.482C110.511 111.482 109.382 111.291 108.327 110.936C112.508 109.533 115.517 105.585 115.517 100.933C115.517 96.2843 112.508 92.3365 108.327 90.9334C109.382 90.5787 110.511 90.3869 111.686 90.3869C117.51 90.3873 122.232 95.1099 122.232 100.934V100.934Z" fill="#E09977"/>
<path d="M111.685 107.752C107.926 107.752 104.868 104.694 104.868 100.935C104.868 97.1758 107.926 94.1178 111.685 94.1178C112.632 94.1178 113.399 94.8852 113.399 95.8319C113.399 96.7784 112.632 97.546 111.685 97.546C109.816 97.546 108.296 99.0662 108.296 100.935C108.296 102.804 109.816 104.324 111.685 104.324C113.554 104.324 115.074 102.804 115.074 100.935C115.074 99.9884 115.841 99.2209 116.788 99.2209C117.735 99.2209 118.502 99.9882 118.502 100.935C118.502 104.694 115.444 107.752 111.685 107.752V107.752Z" fill="#D68F72"/>
<path d="M107.748 57.44C107.514 55.631 105.372 54.7925 103.982 55.9739C102.51 57.2248 100.952 58.3772 99.3186 59.4214C98.5096 59.9385 97.4662 59.3015 97.5601 58.3459C100.488 28.5262 78.2644 5.41226 58.9763 5.32414C51.1784 5.28848 69.0516 24.1805 48.6916 43.503C46.7805 45.3166 45.1216 47.0388 43.6798 48.672C43.1998 49.2157 42.3358 49.179 41.9078 48.5932C39.3787 45.1325 37.3573 41.2776 35.9555 37.1364C35.3756 35.4232 33.1257 35.0547 32.0015 36.4717C26.2229 43.7547 22.7761 52.9679 22.7817 62.9874C22.7952 86.8901 42.2201 105.988 66.1198 105.615C89.3667 105.253 108.102 86.2956 108.102 62.9626C108.102 61.0911 107.981 59.2476 107.748 57.44V57.44Z" fill="#FB6A3B"/>
<path d="M108.102 62.963C108.102 86.2961 89.3669 105.253 66.1207 105.616C63.9975 105.648 61.911 105.529 59.8704 105.264C80.8085 102.543 96.9794 84.6417 96.9794 62.963C96.9794 61.0822 96.8583 59.2311 96.6228 57.4164C96.3874 55.6063 94.2506 54.7929 92.8589 55.9744C92.0238 56.6843 91.161 57.3625 90.2723 58.0073C88.6993 59.1487 86.5133 57.9271 86.6194 55.9866C87.9393 31.8642 72.8901 12.5301 56.8994 6.95197C57.0319 5.89391 57.6102 5.31792 58.9768 5.32476C78.2638 5.41164 100.489 28.5251 97.5597 58.3461C97.4667 59.2937 98.5017 59.9437 99.3041 59.4311C100.943 58.3843 102.506 57.2288 103.982 55.9746C105.371 54.7931 107.51 55.6065 107.746 57.4166C107.981 59.2311 108.102 61.0822 108.102 62.963V62.963Z" fill="#FB5532"/>
<path d="M93.4623 73.7094C93.3082 72.5181 91.8912 71.9531 90.9762 72.7314C90.2074 73.3854 89.4031 73.9987 88.5665 74.5682C87.779 75.1044 86.7085 74.4953 86.7815 73.5452C88.2736 54.1653 73.7692 39.249 61.1594 39.1914C55.9946 39.1677 67.8325 51.6805 54.3476 64.4782C53.2195 65.5489 52.2239 66.5715 51.3445 67.5471C50.8506 68.0949 49.981 68.0374 49.5566 67.4341C48.0202 65.2504 46.7849 62.8396 45.9122 60.2613C45.5299 59.1319 44.0582 58.8595 43.3159 59.7925C39.523 64.5603 37.2406 70.5811 37.1877 77.1337C37.0646 92.3944 49.7631 105.396 65.0228 105.617C80.8188 105.846 93.6968 93.1101 93.6968 77.3667C93.697 76.1274 93.6169 74.9066 93.4623 73.7094V73.7094Z" fill="#FCC16D"/>
<path d="M93.6976 77.3673C93.6976 92.8207 81.2883 105.376 65.892 105.616C64.2946 105.641 62.729 105.534 61.2026 105.308C74.8141 103.278 85.2532 91.5409 85.2532 77.3673C85.2532 76.1218 85.1709 74.8969 85.0156 73.6924C84.8601 72.4948 83.4434 71.9555 82.5224 72.7372C81.7556 73.3903 80.9536 74.002 80.1197 74.5697C79.3297 75.1075 78.2642 74.4924 78.3374 73.5396C79.5516 57.7311 70.1244 44.8941 59.7628 40.6697C59.7514 39.7145 60.0941 39.1866 61.159 39.1912C73.7695 39.2484 88.2725 54.1657 86.7811 73.5446C86.7079 74.4949 87.7787 75.1042 88.5663 74.568C89.3999 74.0008 90.2012 73.3897 90.9686 72.7372C91.8873 71.9555 93.3043 72.495 93.4596 73.6924C93.6155 74.8969 93.6976 76.1218 93.6976 77.3673V77.3673Z" fill="#FCB44D"/>
<path d="M76.8103 93.1578C80.218 79.599 76.0102 69.884 72.7952 64.8854C71.7913 63.3246 69.4603 63.5317 68.7516 65.2468C67.3324 68.6806 63.982 73.6559 56.0721 78.0093C46.9875 83.0093 47.1217 89.911 47.8034 93.1578H76.8103Z" fill="#FFEED3"/>
<path d="M76.8114 93.1588H68.7692C71.45 82.4955 69.4182 74.2089 66.8632 68.7241C67.7178 67.465 68.3235 66.2856 68.7508 65.2458C69.4593 63.5317 71.7902 63.3238 72.7958 64.8846C76.0092 69.8853 80.2188 79.6002 76.8114 93.1588V93.1588Z" fill="#FDDAA9"/>
<path d="M19.1991 111.483C13.3739 111.483 8.65167 106.76 8.65167 100.935C8.65167 95.11 13.3739 90.3878 19.1991 90.3878H79.15V111.483H19.1991Z" fill="#C76D3D"/>
<path d="M60.6738 107.513C59.7271 107.513 58.9597 106.745 58.9597 105.799C58.9597 104.852 59.7271 104.084 60.6738 104.084C66.0203 104.084 69.0126 101.5 69.041 101.474C69.7416 100.837 70.8256 100.888 71.4624 101.589C72.0993 102.289 72.0477 103.373 71.3475 104.01C71.1901 104.153 67.4178 107.513 60.6738 107.513V107.513Z" fill="#AA5E33"/>
<path d="M79.15 111.482C84.9751 111.482 89.6974 106.76 89.6974 100.935C89.6974 95.1093 84.9751 90.3871 79.15 90.3871C73.3248 90.3871 68.6025 95.1093 68.6025 100.935C68.6025 106.76 73.3248 111.482 79.15 111.482Z" fill="#EBBBA5"/>
<path d="M89.6976 100.934C89.6976 106.76 84.975 111.482 79.1492 111.482C77.9766 111.482 76.8471 111.291 75.7927 110.936C79.9729 109.533 82.9827 105.585 82.9827 100.933C82.9827 96.2843 79.9729 92.3365 75.7927 90.9334C76.8471 90.5787 77.9766 90.3869 79.1492 90.3869C84.975 90.3873 89.6976 95.1099 89.6976 100.934V100.934Z" fill="#E6AC8E"/>
<path d="M79.1498 107.752C75.3909 107.752 72.3328 104.694 72.3328 100.935C72.3328 97.1758 75.3907 94.1178 79.1498 94.1178C80.0965 94.1178 80.8639 94.8852 80.8639 95.8319C80.8639 96.7784 80.0965 97.546 79.1498 97.546C77.2812 97.546 75.7608 99.0662 75.7608 100.935C75.7608 102.804 77.281 104.324 79.1498 104.324C81.0187 104.324 82.539 102.804 82.539 100.935C82.539 99.9884 83.3063 99.2209 84.253 99.2209C85.1998 99.2209 85.9671 99.9882 85.9671 100.935C85.9669 104.694 82.9089 107.752 79.1498 107.752V107.752Z" fill="#E09977"/>
<path d="M48.3066 101.351C48.1604 101.416 45.9893 102.316 41.5626 102.316C38.603 102.316 34.6335 101.914 29.5852 100.586C16.9017 97.2538 10.601 98.5039 8.82538 99.0272C9.07668 97.6446 9.59772 96.3556 10.3338 95.2198C13.8965 94.7056 20.339 94.6142 30.4583 97.2721C41.7364 100.234 46.9012 98.225 46.9491 98.2045C47.8197 97.8296 48.8276 98.2296 49.2025 99.0981C49.5771 99.9689 49.1772 100.977 48.3066 101.351V101.351Z" fill="#AA5E33"/>
<path d="M62.1286 99.3338C62.1252 99.3338 62.1219 99.3338 62.1184 99.3338C61.1719 99.3282 60.3993 98.5563 60.4049 97.6098C60.4105 96.6666 61.1673 95.9057 62.1091 95.9057H62.1194L62.1387 95.9059C63.0852 95.9115 63.8482 96.6832 63.8426 97.6297C63.8366 98.5731 63.0703 99.3338 62.1286 99.3338V99.3338Z" fill="#AA5E33"/>
<path d="M42.0264 111.482H36.665C29.1236 106.498 17.6171 106.174 17.4844 106.171C16.5383 106.151 15.7887 105.365 15.8092 104.421C15.8298 103.486 16.593 102.743 17.5211 102.743H17.5598C18.2362 102.759 34.0507 103.193 42.0264 111.482Z" fill="#AA5E33"/>
<path d="M104.785 37.4775C104.154 37.4775 103.642 36.966 103.642 36.3348V32.1897C103.642 28.4206 106.697 25.3653 110.467 25.3653C111.098 25.3653 111.609 25.8768 111.609 26.5079V30.6531C111.609 34.4221 108.554 37.4775 104.785 37.4775Z" fill="#FB6A3B"/>
<path d="M42.3976 21.6172C43.0287 21.6172 43.5402 21.1057 43.5402 20.4745V16.3292C43.5402 12.5601 40.4849 9.50475 36.7158 9.50475C36.0847 9.50475 35.5732 10.0163 35.5732 10.6474V14.7926C35.5732 18.5618 38.6286 21.6172 42.3976 21.6172V21.6172Z" fill="#FB6A3B"/>
<defs>
<linearGradient id="paint0_linear" x1="63.9066" y1="128" x2="63.9066" y2="-1.91038e-07" gradientUnits="userSpaceOnUse">
<stop stop-color="#9578BC"/>
<stop offset="1" stop-color="#644FB3"/>
<stop offset="1" stop-color="#644FB3" stop-opacity="0"/>
</linearGradient>
</defs>
</svg>
