<svg width="128" height="128" viewBox="0 0 128 128" fill="none" xmlns="http://www.w3.org/2000/svg">
<circle cx="64" cy="64" r="64" fill="url(#paint0_linear)"/>
<path d="M109.558 24.3296L67.1082 2.58335C65.5808 1.80093 63.7706 1.80093 62.2433 2.58335L19.793 24.3296C18.0112 25.2422 16.8902 27.0759 16.8902 29.0778V107.657H64.6757H112.461V29.0778C112.461 27.0757 111.34 25.2422 109.558 24.3296V24.3296Z" fill="#9790CC"/>
<path d="M29.4906 60.403V109.366H99.8608C99.8608 108.852 99.8608 60.8207 99.8608 60.403H29.4906Z" fill="#8479C2"/>
<path d="M29.4906 60.403V109.366H40.3941C40.3941 108.852 40.3941 60.8207 40.3941 60.403H29.4906Z" fill="#6E60B8"/>
<path d="M29.8963 34.2198C29.8963 32.2177 31.0173 30.3842 32.7991 29.4716L75.2494 7.72553C75.5999 7.54584 75.9659 7.40963 76.3392 7.31247L67.1082 2.58335C65.5808 1.80093 63.7706 1.80093 62.2433 2.58335L19.793 24.3296C18.0112 25.2422 16.8902 27.0759 16.8902 29.0778V107.657H29.8963V34.2198Z" fill="#8479C2"/>
<path d="M63.0111 84.4989H54.9633L54.1078 85.1127H47.9374L47.1726 84.4989H39.1247C38.2055 84.4989 37.4601 85.2443 37.4601 86.1636V105.992C37.4601 106.912 38.2055 107.657 39.1247 107.657H63.0108C63.9301 107.657 64.6755 106.912 64.6755 105.992V86.1636C64.6757 85.2443 63.9304 84.4989 63.0111 84.4989V84.4989Z" fill="#6ED6A2"/>
<path d="M43.345 105.992V86.1636C43.345 85.2443 44.0903 84.4989 45.0096 84.4989H39.125C38.2057 84.4989 37.4603 85.2443 37.4603 86.1636V105.992C37.4603 106.912 38.2057 107.657 39.125 107.657H45.0096C44.0903 107.657 43.345 106.912 43.345 105.992Z" fill="#00C479"/>
<path d="M47.1728 84.4991V95.481C47.1728 96.0466 47.6313 96.5052 48.1968 96.5052H53.939C54.5047 96.5052 54.9632 96.0466 54.9632 95.481V84.4991H47.1728Z" fill="#F27182"/>
<path d="M90.2265 84.4989H82.1787L81.589 84.8842H74.6855L74.3882 84.4989H66.3404C65.4211 84.4989 64.6757 85.2443 64.6757 86.1636V105.992C64.6757 106.912 65.4211 107.657 66.3404 107.657H90.2265C91.1458 107.657 91.8911 106.912 91.8911 105.992V86.1636C91.8911 85.2443 91.1458 84.4989 90.2265 84.4989Z" fill="#00D2FC"/>
<path d="M70.5604 105.992V86.1636C70.5604 85.2443 71.3058 84.4989 72.2251 84.4989H66.3404C65.4211 84.4989 64.6757 85.2443 64.6757 86.1636V105.992C64.6757 106.912 65.4211 107.657 66.3404 107.657H72.2251C71.3058 107.657 70.5604 106.912 70.5604 105.992Z" fill="#00C2FB"/>
<path d="M74.3882 84.4991V95.481C74.3882 96.0466 74.8467 96.5052 75.4122 96.5052H81.1544C81.7201 96.5052 82.1787 96.0466 82.1787 95.481V84.4991H74.3882Z" fill="#F27182"/>
<path d="M90.2263 61.3409H66.3404C65.4211 61.3409 64.6757 62.0863 64.6757 63.0056V82.8342C64.6757 83.7538 65.4211 84.4989 66.3404 84.4989H74.388H90.2263C91.1455 84.4989 91.8909 83.7538 91.8909 82.8342V63.0056C91.8909 62.0863 91.1458 61.3409 90.2263 61.3409Z" fill="#FFC365"/>
<path d="M70.5604 82.8342V63.0056C70.5604 62.0863 71.3058 61.3409 72.2251 61.3409H66.3404C65.4211 61.3409 64.6757 62.0863 64.6757 63.0056V82.8342C64.6757 83.7535 65.4211 84.4989 66.3404 84.4989H72.2251C71.3058 84.4989 70.5604 83.7538 70.5604 82.8342Z" fill="#FFA90F"/>
<path d="M74.3882 61.3411V72.3229C74.3882 72.8886 74.8467 73.3472 75.4122 73.3472H81.1544C81.7201 73.3472 82.1787 72.8886 82.1787 72.3229V61.3411H74.3882Z" fill="#F27182"/>
<path d="M51.3245 95.4807V84.4989H47.1728V95.4807C47.1728 96.0464 47.6313 96.505 48.1968 96.505H52.3485C51.783 96.505 51.3245 96.0464 51.3245 95.4807Z" fill="#ED5469"/>
<path d="M78.5399 95.4807V84.4989H74.3882V95.4807C74.3882 96.0464 74.8467 96.505 75.4122 96.505H79.5639C78.9984 96.505 78.5399 96.0464 78.5399 95.4807Z" fill="#ED5469"/>
<path d="M78.5399 72.3227V61.3409H74.3882V72.3227C74.3882 72.8884 74.8467 73.3469 75.4122 73.3469H79.5639C78.9984 73.3469 78.5399 72.8884 78.5399 72.3227Z" fill="#ED5469"/>
<path d="M116.823 107.428H12.5289C11.8579 107.428 11.3137 107.973 11.3137 108.644V114.362C11.3137 115.033 11.8576 115.577 12.5289 115.577H116.823C117.494 115.577 118.038 115.033 118.038 114.362V108.644C118.038 107.973 117.494 107.428 116.823 107.428Z" fill="#938493"/>
<path d="M32.2021 114.362V108.644C32.2021 107.973 32.746 107.428 33.4173 107.428H12.5289C11.8579 107.428 11.3137 107.973 11.3137 108.644V114.362C11.3137 115.033 11.8576 115.577 12.5289 115.577H33.4173C32.746 115.577 32.2021 115.033 32.2021 114.362Z" fill="#7B6C79"/>
<path d="M29.4906 51.8609H99.8608V61.5578H29.4906V51.8609Z" fill="#00D2FC"/>
<path d="M29.4906 51.8609H40.3941V61.5578H29.4906V51.8609Z" fill="#00C2FB"/>
<path d="M29.4906 42.2673H99.8608V52.0779H29.4906V42.2673Z" fill="#62DDFC"/>
<path d="M29.4906 42.2673H40.3941V52.0779H29.4906V42.2673Z" fill="#00D2FC"/>
<path d="M101.599 41.5994V36.1096C101.599 35.4385 101.055 34.8944 100.384 34.8944H28.9675C28.2962 34.8944 27.7523 35.4385 27.7523 36.1096V41.5994C27.7523 42.2704 28.2962 42.8146 28.9675 42.8146H100.384C101.055 42.8146 101.599 42.2704 101.599 41.5994Z" fill="#DBEDFF"/>
<path d="M39.1789 41.5994V36.1096C39.1789 35.4385 39.7228 34.8944 40.3941 34.8944H28.9675C28.2962 34.8944 27.7523 35.4385 27.7523 36.1096V41.5994C27.7523 42.2704 28.2962 42.8146 28.9675 42.8146H40.3941C39.723 42.8146 39.1789 42.2704 39.1789 41.5994Z" fill="#B5DCFF"/>
<defs>
<linearGradient id="paint0_linear" x1="63.9066" y1="128" x2="63.9066" y2="-1.91038e-07" gradientUnits="userSpaceOnUse">
<stop stop-color="#9578BC"/>
<stop offset="1" stop-color="#644FB3"/>
<stop offset="1" stop-color="#644FB3" stop-opacity="0"/>
</linearGradient>
</defs>
</svg>
