<svg width="300" height="74" viewBox="0 0 300 74" fill="none" xmlns="http://www.w3.org/2000/svg">
<path fill-rule="evenodd" clip-rule="evenodd" d="M36.307 21.1704C37.2233 22.0574 37.8068 23.2934 38.8257 23.6218C35.5374 16.1475 43.3872 10.6703 45.5509 6.22372C47.2998 2.62943 45.1598 0.759044 45.6442 0.0519105C45.078 -0.333264 44.4819 1.4989 43.4469 3.10428C42.6323 4.3686 41.8186 5.48167 40.9762 6.63443C40.1557 7.75798 39.2818 8.96587 38.5521 10.0398C37.8374 11.0921 37.1312 12.6199 36.307 13.6841C35.4827 12.6199 34.7764 11.0921 34.0618 10.0398C33.332 8.96587 32.4584 7.75798 31.6377 6.63443C30.7951 5.48167 29.9816 4.3686 29.167 3.10428C28.132 1.4989 27.5359 -0.333264 26.9697 0.0519105C27.4541 0.759044 25.3141 2.62943 27.063 6.22372C29.2267 10.6703 37.0765 16.1475 33.7881 23.6218L33.2315 23.0102L33.7881 23.6218C34.8071 23.2934 35.3906 22.0574 36.307 21.1704V21.1704Z" fill="#51AE3A"/>
<path fill-rule="evenodd" clip-rule="evenodd" d="M45.6442 0.051918C45.1598 0.759052 47.2998 2.62944 45.5508 6.22373C43.3872 10.6703 35.5374 16.1475 38.8257 23.6218L43.3223 17.5871C44.7761 15.702 45.9494 14.133 47.0976 12.1833C49.4851 8.13086 50.5329 3.83273 45.6442 0.051918V0.051918ZM26.9697 0.051918C27.4541 0.759052 25.3141 2.62944 27.063 6.22373C29.2267 10.6703 37.0764 16.1475 33.7881 23.6218L29.2915 17.5871C27.8378 15.702 26.6644 14.133 25.5162 12.1833C23.1289 8.13086 22.0809 3.83273 26.9697 0.051918V0.051918Z" fill="#93C02C"/>
<path fill-rule="evenodd" clip-rule="evenodd" d="M49.6246 28.8125C49.2444 30.0298 48.4026 31.1066 48.5676 32.1644C53.7649 25.8665 62.1873 30.4149 67.1317 30.3479C71.1282 30.2937 71.8367 27.5414 72.6862 27.6561C72.7753 26.977 70.8712 27.2685 68.9719 27.066C67.4762 26.9068 66.1162 26.6806 64.7076 26.4465C63.3351 26.2188 61.8631 25.9816 60.576 25.8125C59.3146 25.6475 57.6324 25.7037 56.3113 25.4461C56.8909 24.2312 57.9384 22.9134 58.5568 21.802C59.1878 20.6672 59.8736 19.3437 60.5082 18.1055C61.1591 16.8346 61.7874 15.6074 62.5502 14.3111C63.5188 12.6649 64.8872 11.3085 64.2888 10.9759C63.8748 11.7266 61.242 10.6564 58.8179 13.8346C55.8194 17.7666 54.4569 27.2411 46.3023 27.6652L46.5983 26.8929L46.3023 27.6652C47.0539 28.4277 48.4202 28.3928 49.6246 28.8125V28.8125Z" fill="#51AE3A"/>
<path fill-rule="evenodd" clip-rule="evenodd" d="M72.6862 27.656C71.8367 27.5414 71.1282 30.2937 67.1317 30.3479C62.1873 30.4149 53.7649 25.8665 48.5676 32.1644L55.9796 33.4673C58.3175 33.9181 60.2461 34.2604 62.5043 34.4093C67.1973 34.7195 71.5075 33.7227 72.6862 27.656ZM64.2888 10.9759C63.8748 11.7266 61.242 10.6563 58.8179 13.8346C55.8194 17.7666 54.4569 27.2411 46.3023 27.6652L49.6704 20.935C50.7006 18.7888 51.5742 17.0353 52.7995 15.1329C55.3456 11.1783 58.7133 8.30947 64.2888 10.9759V10.9759Z" fill="#93C02C"/>
<path fill-rule="evenodd" clip-rule="evenodd" d="M49.6588 44.2101C48.4145 44.4895 47.0609 44.2989 46.2273 44.9706C54.2801 46.3227 54.5523 55.8907 57.0826 60.1392C59.1279 63.5734 61.8655 62.8108 62.1909 63.6038C62.8238 63.3415 61.6192 61.8379 60.8448 60.092C60.2349 58.7172 59.7505 57.4263 59.249 56.0893C58.7602 54.7868 58.2298 53.3937 57.7324 52.1942C57.2449 51.0194 56.3549 49.5908 55.9173 48.3177C57.2596 48.2124 58.9243 48.4605 60.196 48.4402C61.4943 48.4193 62.9835 48.3517 64.3732 48.282C65.7992 48.2102 67.1762 48.1407 68.6801 48.1534C70.5902 48.169 72.4488 48.676 72.4376 47.9911C71.5807 48.0082 71.1909 45.1929 67.2265 44.6828C62.322 44.0519 53.4357 47.6093 48.9913 40.7592L49.808 40.6294L48.9913 40.7592C48.7067 41.7914 49.4201 42.9574 49.6588 44.2101Z" fill="#51AE3A"/>
<path fill-rule="evenodd" clip-rule="evenodd" d="M62.1909 63.6038C61.8655 62.8108 59.1279 63.5734 57.0826 60.1392C54.5523 55.8907 54.2801 46.3227 46.2273 44.9706L48.805 52.0414C49.5836 54.291 50.2516 56.1327 51.2515 58.1624C53.3293 62.3821 56.3477 65.6164 62.1909 63.6038V63.6038ZM72.4376 47.9911C71.5807 48.0082 71.1909 45.1929 67.2265 44.6828C62.322 44.0519 53.4357 47.6093 48.9913 40.7592L56.5039 40.311C58.8776 40.13 60.8329 40.0101 63.093 40.1199C67.7909 40.3474 71.9594 41.8296 72.4376 47.9911V47.9911Z" fill="#93C02C"/>
<path fill-rule="evenodd" clip-rule="evenodd" d="M36.307 52.1446C37.2233 51.2577 37.8068 50.0216 38.8257 49.6932C35.5374 57.1675 43.3872 62.6448 45.5509 67.0912C47.2998 70.6855 45.1598 72.5559 45.6442 73.2631C45.078 73.6483 44.4819 71.8161 43.4469 70.2107C42.6323 68.9464 41.8186 67.8333 40.9762 66.6805C40.1557 65.557 39.2818 64.3491 38.5521 63.2753C37.8374 62.2229 37.1312 60.6951 36.307 59.6309C35.4827 60.6951 34.7764 62.2229 34.0618 63.2753C33.332 64.3491 32.4584 65.557 31.6377 66.6805C30.7951 67.8333 29.9816 68.9464 29.167 70.2107C28.132 71.8161 27.5359 73.6483 26.9697 73.2631C27.4541 72.5559 25.3141 70.6855 27.063 67.0912C29.2267 62.6448 37.0765 57.1675 33.7881 49.6932L33.2315 50.3047L33.7881 49.6932C34.8071 50.0216 35.3906 51.2577 36.307 52.1446V52.1446Z" fill="#51AE3A"/>
<path fill-rule="evenodd" clip-rule="evenodd" d="M45.6442 73.2631C45.1598 72.5559 47.2998 70.6855 45.5508 67.0912C43.3872 62.6448 35.5374 57.1675 38.8257 49.6932L43.3223 55.7279C44.7761 57.6131 45.9494 59.1821 47.0976 61.1317C49.4851 65.1841 50.5329 69.4824 45.6442 73.2631V73.2631ZM26.9697 73.2631C27.4541 72.5559 25.3141 70.6855 27.063 67.0912C29.2267 62.6448 37.0764 57.1675 33.7881 49.6932L29.2915 55.7279C27.8378 57.6131 26.6644 59.1821 25.5162 61.1317C23.1289 65.1841 22.0809 69.4824 26.9697 73.2631Z" fill="#93C02C"/>
<path fill-rule="evenodd" clip-rule="evenodd" d="M23.0646 28.8125C23.4448 30.0298 24.2867 31.1066 24.1216 32.1644C18.9244 25.8665 10.5021 30.4149 5.55773 30.3479C1.56099 30.2937 0.852748 27.5414 0.00301154 27.6561C-0.0861153 26.977 1.81807 27.2685 3.71749 27.066C5.21298 26.9068 6.57322 26.6806 7.98161 26.4465C9.35416 26.2188 10.8261 25.9816 12.1134 25.8125C13.3746 25.6475 15.0566 25.7037 16.3779 25.4461C15.7983 24.2312 14.751 22.9134 14.1326 21.802C13.5014 20.6672 12.8156 19.3437 12.181 18.1055C11.5301 16.8346 10.902 15.6074 10.1388 14.3111C9.17058 12.6649 7.80207 11.3085 8.40059 10.9759C8.81462 11.7266 11.4474 10.6564 13.8713 13.8346C16.8698 17.7666 18.2323 27.2411 26.3871 27.6652L26.0909 26.8929L26.3871 27.6652C25.6353 28.4277 24.269 28.3928 23.0646 28.8125V28.8125Z" fill="#51AE3A"/>
<path fill-rule="evenodd" clip-rule="evenodd" d="M0.00299072 27.656C0.852728 27.5414 1.56096 30.2937 5.55771 30.3479C10.5021 30.4149 18.9243 25.8665 24.1216 32.1644L16.7096 33.4673C14.3719 33.9181 12.4431 34.2604 10.1851 34.4093C5.49192 34.7195 1.18167 33.7227 0.00299072 27.656ZM8.40057 10.9759C8.8146 11.7266 11.4474 10.6563 13.8713 13.8346C16.8698 17.7666 18.2323 27.2411 26.3871 27.6652L23.019 20.935C21.9888 18.7888 21.115 17.0353 19.8897 15.1329C17.3438 11.1783 13.9759 8.30947 8.40057 10.9759V10.9759Z" fill="#93C02C"/>
<path fill-rule="evenodd" clip-rule="evenodd" d="M23.0305 44.2101C24.2749 44.4895 25.6286 44.2989 26.4619 44.9706C18.4091 46.3227 18.1369 55.8907 15.6067 60.1392C13.5615 63.5734 10.8238 62.8108 10.4983 63.6038C9.86542 63.3415 11.0702 61.8379 11.8444 60.092C12.4545 58.7172 12.9387 57.4263 13.4402 56.0893C13.9292 54.7868 14.4596 53.3937 14.957 52.1942C15.4444 51.0194 16.3344 49.5908 16.7719 48.3177C15.4297 48.2124 13.7649 48.4605 12.4933 48.4402C11.195 48.4193 9.70573 48.3517 8.31608 48.282C6.89005 48.2102 5.51309 48.1407 4.00914 48.1534C2.09907 48.169 0.240458 48.676 0.251668 47.9911C1.10876 48.0082 1.49816 45.1929 5.46274 44.6828C10.3673 44.0519 19.2535 47.6093 23.6981 40.7592L22.8812 40.6294L23.6981 40.7592C23.9826 41.7914 23.2692 42.9574 23.0305 44.2101V44.2101Z" fill="#51AE3A"/>
<path fill-rule="evenodd" clip-rule="evenodd" d="M10.4983 63.6038C10.8237 62.8108 13.5615 63.5734 15.6066 60.1392C18.1369 55.8907 18.4091 46.3227 26.4619 44.9706L23.884 52.0414C23.1058 54.291 22.4378 56.1327 21.4377 58.1624C19.3597 62.3821 16.3413 65.6164 10.4983 63.6038ZM0.251648 47.9911C1.10874 48.0082 1.49814 45.1929 5.46272 44.6828C10.3673 44.0519 19.2535 47.6093 23.6981 40.7592L16.1853 40.311C13.8116 40.13 11.8565 40.0101 9.59618 40.1199C4.89837 40.3474 0.729992 41.8296 0.251648 47.9911Z" fill="#93C02C"/>
<path d="M93.1137 51.4081C97.7496 51.4081 100.11 48.8373 100.11 44.1171V40.9563C100.11 36.2361 97.7496 33.6654 93.1137 33.6654H90.4166V26.1214H98.7609V21.9071H85.7805V51.4081H93.1137V51.4081ZM90.4166 47.1936V37.8797H93.1137C94.5888 37.8797 95.4737 38.5541 95.4737 40.6612V44.4121C95.4737 46.5193 94.5888 47.1936 93.1137 47.1936H90.4166V47.1936Z" fill="#5D4593"/>
<path d="M115.492 28.6923C115.492 26.5851 116.419 25.7844 117.895 25.7844C119.37 25.7844 120.297 26.5851 120.297 28.6923V44.6229C120.297 46.7301 119.37 47.5308 117.895 47.5308C116.419 47.5308 115.492 46.7301 115.492 44.6229V28.6923ZM110.856 44.3279C110.856 49.048 113.343 51.7453 117.895 51.7453C122.446 51.7453 124.933 49.048 124.933 44.3279V28.9873C124.933 24.2672 122.446 21.5699 117.895 21.5699C113.343 21.5699 110.856 24.2672 110.856 28.9873V44.3279V44.3279Z" fill="#5D4593"/>
<path d="M132.561 26.1214H140.568V21.9071H127.925V51.4081H140.568V47.1936H132.561V38.5541H138.924V34.3396H132.561V26.1214Z" fill="#5D4593"/>
<path d="M148.07 38.7647H153.338V51.4081H158.058V21.9071H153.338V34.5504H148.07V21.9071H143.434V51.4081H148.07V38.7647Z" fill="#5D4593"/>
<path d="M166.065 26.1214H174.073V21.9071H161.43V51.4081H174.073V47.1936H166.065V38.5541H172.429V34.3396H166.065V26.1214Z" fill="#5D4593"/>
<path d="M183.766 21.9071H176.939V51.4081H181.574V40.3242H183.766C188.402 40.3242 190.678 37.7533 190.678 33.0332V29.198C190.678 24.4778 188.402 21.9071 183.766 21.9071ZM183.766 26.1214C185.241 26.1214 186.042 26.7958 186.042 28.9031V33.3282C186.042 35.4354 185.241 36.1097 183.766 36.1097H181.574V26.1214H183.766Z" fill="#5D4593"/>
<path d="M197.505 51.4081V26.1214H205.091V21.9071H192.869V51.4081H197.505Z" fill="#5D4593"/>
<path d="M212.466 28.6923C212.466 26.5851 213.394 25.7844 214.869 25.7844C216.344 25.7844 217.271 26.5851 217.271 28.6923V44.6229C217.271 46.7301 216.344 47.5308 214.869 47.5308C213.394 47.5308 212.466 46.7301 212.466 44.6229V28.6923ZM207.83 44.3279C207.83 49.048 210.317 51.7453 214.869 51.7453C219.42 51.7453 221.907 49.048 221.907 44.3279V28.9873C221.907 24.2672 219.42 21.5699 214.869 21.5699C210.317 21.5699 207.83 24.2672 207.83 28.9873V44.3279V44.3279Z" fill="#5D4593"/>
<path d="M229.535 26.1214H234.803V51.4081H239.523V21.9071H224.899V51.4081H229.535V26.1214Z" fill="#5D4593"/>
<path d="M247.151 28.6923C247.151 26.5851 248.078 25.7844 249.553 25.7844C251.028 25.7844 251.956 26.5851 251.956 28.6923V44.6229C251.956 46.7301 251.028 47.5308 249.553 47.5308C248.078 47.5308 247.151 46.7301 247.151 44.6229V28.6923ZM242.515 44.3279C242.515 49.048 245.002 51.7453 249.553 51.7453C254.105 51.7453 256.592 49.048 256.592 44.3279V28.9873C256.592 24.2672 254.105 21.5699 249.553 21.5699C245.002 21.5699 242.515 24.2672 242.515 28.9873V44.3279V44.3279Z" fill="#5D4593"/>
<path d="M258.277 51.4501H258.994C263.63 51.4501 265.568 49.3431 265.737 43.9486L266.243 26.1214H270.288V51.4081H275.008V21.9071H261.902L261.143 44.2015C261.059 46.9407 260.385 47.2358 258.277 47.2358V51.4501V51.4501Z" fill="#5D4593"/>
<path d="M295.617 40.4084V44.6229C295.617 46.7301 294.69 47.4887 293.215 47.4887C291.74 47.4887 290.812 46.7301 290.812 44.6229V28.6923C290.812 26.5851 291.74 25.7844 293.215 25.7844C294.69 25.7844 295.617 26.5851 295.617 28.6923V31.8531H300V28.9873C300 24.2672 297.64 21.5699 293.088 21.5699C288.537 21.5699 286.177 24.2672 286.177 28.9873V44.3279C286.177 49.048 288.537 51.7453 293.088 51.7453C297.64 51.7453 300 49.048 300 44.3279V40.4084H295.617Z" fill="#5D4593"/>
<path d="M103.228 51.4081H107.864V21.9071H103.228V51.4081Z" fill="#5D4593"/>
<path d="M278.549 51.4081H283.184V21.9071H278.549V51.4081Z" fill="#5D4593"/>
</svg>
